<svg width="17" height="17" viewBox="0 0 17 17" fill="none" xmlns="http://www.w3.org/2000/svg">
<path fill-rule="evenodd" clip-rule="evenodd" d="M6.2871 1.76871C5.35967 2.07399 4.50545 2.56791 3.77818 3.21937V3.22008C4.09169 4.02138 4.02339 4.92182 3.5926 5.66667C3.16271 6.41295 2.41621 6.92269 1.56464 7.05146C1.36582 8.00716 1.36582 8.99355 1.56464 9.94925C2.41607 10.0779 3.16255 10.5873 3.5926 11.3333C4.02361 12.0784 4.09192 12.9791 3.77818 13.7806C4.50551 14.4318 5.35973 14.9255 6.2871 15.2306C6.8243 14.5576 7.63882 14.166 8.49993 14.1667C9.36092 14.1658 10.1754 14.5571 10.7128 15.2299C11.6401 14.9248 12.4944 14.4311 13.2217 13.7799C12.9079 12.9784 12.9763 12.0777 13.4073 11.3326C13.8556 10.557 14.6136 10.0739 15.4352 9.94783C15.6339 8.99236 15.6339 8.00622 15.4352 7.05075C14.5837 6.92199 13.8372 6.41224 13.4073 5.66596C12.9765 4.92111 12.9082 4.02067 13.2217 3.21937C12.4944 2.56791 11.6402 2.07399 10.7128 1.76871C10.1756 2.44171 9.36104 2.83333 8.49993 2.83262C7.63882 2.83333 6.8243 2.44171 6.2871 1.76871ZM10.6371 8.49691C10.6355 9.25946 10.2253 9.96265 9.56243 10.3395C8.54698 10.9169 7.25591 10.5664 6.67185 9.55477C6.08778 8.54317 6.42973 7.2498 7.43743 6.65904C8.09527 6.27339 8.90931 6.26978 9.57055 6.64958C10.2318 7.02939 10.6388 7.73437 10.6371 8.49691Z" fill="white"/>
</svg>
